<svg width="20" height="20" viewBox="0 0 20 20" fill="none" xmlns="http://www.w3.org/2000/svg">
<path d="M17.6889 2.13625C17.4611 1.4725 16.8389 1 16.1111 1H3.88889C3.16111 1 2.53889 1.4725 2.31111 2.13625L0 8.875V17.875C0 18.4937 0.5 19 1.11111 19H2.22222C2.83889 19 3.33333 18.4937 3.33333 17.875V16.75H16.6667V17.875C16.6667 18.4937 17.1667 19 17.7778 19H18.8889C19.5056 19 20 18.4937 20 17.875V8.875L17.6889 2.13625ZM3.88889 13.375C2.96667 13.375 2.22222 12.6213 2.22222 11.6875C2.22222 10.7537 2.96667 10 3.88889 10C4.81111 10 5.55556 10.7537 5.55556 11.6875C5.55556 12.6213 4.81111 13.375 3.88889 13.375ZM16.1111 13.375C15.1889 13.375 14.4444 12.6213 14.4444 11.6875C14.4444 10.7537 15.1889 10 16.1111 10C17.0333 10 17.7778 10.7537 17.7778 11.6875C17.7778 12.6213 17.0333 13.375 16.1111 13.375ZM2.22222 7.75L3.88889 2.6875H16.1111L17.7778 7.75H2.22222Z" fill="#23B52D"/>
</svg>
