<svg width="17" height="17" viewBox="0 0 17 17" fill="none" xmlns="http://www.w3.org/2000/svg">
<path d="M16.9383 6.39542C16.8624 6.15342 16.7191 5.94014 16.5265 5.78243C16.3339 5.62473 16.1006 5.52966 15.856 5.50921L11.3781 5.13457L9.64911 0.798742C9.55561 0.562484 9.39647 0.360396 9.19192 0.218168C8.98738 0.0759411 8.74667 0 8.5004 0C8.25412 0 8.01341 0.0759411 7.80887 0.218168C7.60432 0.360396 7.44518 0.562484 7.35168 0.798742L5.62425 5.13379L1.144 5.50921C0.898982 5.5307 0.665529 5.62669 0.472889 5.78515C0.280249 5.94362 0.136989 6.15751 0.0610572 6.40003C-0.0148745 6.64255 -0.0201008 6.90292 0.0460333 7.1485C0.112167 7.39409 0.246721 7.61398 0.432835 7.78062L3.84824 10.8367L2.80768 15.4063C2.74948 15.6546 2.76373 15.9151 2.84862 16.155C2.9335 16.3948 3.08519 16.6031 3.28444 16.7534C3.48368 16.9037 3.72149 16.9892 3.96768 16.999C4.21387 17.0089 4.45734 16.9427 4.66718 16.8088L8.50002 14.3627L12.3351 16.8088C12.545 16.9411 12.788 17.006 13.0334 16.9954C13.2789 16.9848 13.5158 16.8992 13.7143 16.7492C13.9129 16.5992 14.0643 16.3917 14.1493 16.1528C14.2344 15.9138 14.2494 15.6541 14.1924 15.4063L13.148 10.8359L16.5634 7.77983C16.751 7.61347 16.8868 7.39311 16.9536 7.14665C17.0203 6.9002 17.015 6.63875 16.9383 6.39542ZM15.7741 6.82594L12.0778 10.1315C11.9935 10.2069 11.9308 10.3048 11.8966 10.4146C11.8623 10.5244 11.8578 10.6418 11.8835 10.7541L13.0129 15.6967C13.0158 15.7035 13.0161 15.7113 13.0137 15.7183C13.0113 15.7253 13.0064 15.7311 13 15.7345C12.9863 15.7455 12.9825 15.7432 12.9712 15.7345L8.81803 13.0861C8.72238 13.0251 8.6123 12.9928 8.50002 12.9928C8.38774 12.9928 8.27765 13.0251 8.182 13.0861L4.02887 15.7361C4.01749 15.7432 4.01445 15.7455 4.00003 15.7361C3.99363 15.7327 3.98872 15.7269 3.98632 15.7199C3.98392 15.7128 3.98421 15.7051 3.98713 15.6983L5.11649 10.7557C5.14223 10.6434 5.13772 10.5259 5.10345 10.4161C5.06919 10.3064 5.00648 10.2084 4.92219 10.1331L1.22597 6.82751C1.21686 6.81964 1.20851 6.81256 1.2161 6.78816C1.22369 6.76376 1.22976 6.76691 1.24115 6.76533L6.09254 6.35922C6.20381 6.34932 6.3103 6.30779 6.40028 6.23919C6.49026 6.1706 6.56026 6.0776 6.60257 5.97042L8.47118 1.27884C8.47725 1.26546 8.47952 1.25916 8.49774 1.25916C8.51595 1.25916 8.51823 1.26546 8.5243 1.27884L10.3975 5.97042C10.4402 6.07764 10.5106 6.17054 10.601 6.23887C10.6914 6.3072 10.7983 6.3483 10.9098 6.35764L15.7612 6.76376C15.7725 6.76376 15.7794 6.76376 15.7862 6.78658C15.793 6.80941 15.7862 6.81806 15.7741 6.82594Z" fill="#F90B3E"/>
<path d="M15.7741 6.82594L12.0778 10.1315C11.9935 10.2069 11.9308 10.3048 11.8966 10.4146C11.8623 10.5244 11.8578 10.6418 11.8835 10.7541L13.0129 15.6967C13.0158 15.7035 13.0161 15.7113 13.0137 15.7183C13.0113 15.7253 13.0064 15.7311 13 15.7345C12.9863 15.7455 12.9825 15.7432 12.9712 15.7345L8.81803 13.0861C8.72238 13.0251 8.6123 12.9928 8.50002 12.9928C8.38774 12.9928 8.27765 13.0251 8.182 13.0861L4.02887 15.7361C4.01749 15.7432 4.01445 15.7455 4.00003 15.7361C3.99363 15.7327 3.98872 15.7269 3.98632 15.7199C3.98392 15.7128 3.98421 15.7051 3.98713 15.6983L5.11649 10.7557C5.14223 10.6434 5.13772 10.5259 5.10345 10.4161C5.06919 10.3064 5.00648 10.2084 4.92219 10.1331L1.22597 6.82751C1.21686 6.81964 1.20851 6.81256 1.2161 6.78816C1.22369 6.76376 1.22976 6.76691 1.24115 6.76533L6.09254 6.35922C6.20381 6.34932 6.3103 6.30779 6.40028 6.23919C6.49026 6.1706 6.56026 6.0776 6.60257 5.97042L8.47118 1.27884C8.47725 1.26546 8.47952 1.25916 8.49774 1.25916C8.51595 1.25916 8.51823 1.26546 8.5243 1.27884L10.3975 5.97042C10.4402 6.07764 10.5106 6.17054 10.601 6.23887C10.6914 6.3072 10.7983 6.3483 10.9098 6.35764L15.7612 6.76376C15.7725 6.76376 15.7794 6.76376 15.7862 6.78658C15.793 6.80941 15.7862 6.81806 15.7741 6.82594Z" fill="#F90B3E"/>
</svg>
