<svg width="20" height="20" viewBox="0 0 20 20" fill="none" xmlns="http://www.w3.org/2000/svg">
<path d="M11.9062 0C11.9062 0 12.6 2.42955 12.6 4.40069C12.6 6.28932 11.3344 7.82497 9.39844 7.82497C7.4625 7.82497 6 6.2939 6 4.40069L6.02344 4.07064C4.13906 6.27556 3 9.11767 3 12.2211C3 16.2734 6.35625 19.5556 10.5 19.5556C14.6438 19.5556 18 16.2734 18 12.2211C18 7.27489 15.5672 2.86503 11.9062 0ZM10.2281 16.8051C8.55938 16.8051 7.20469 15.517 7.20469 13.9263C7.20469 12.4365 8.18438 11.3914 9.84375 11.0659C11.5031 10.7404 13.2188 9.96114 14.1703 8.70511C14.5359 9.8878 14.7281 11.1347 14.7281 12.4044C14.7281 14.8294 12.7125 16.8051 10.2281 16.8051Z" fill="#F9820B"/>
</svg>
