<svg width="89" height="44" viewBox="0 0 89 44" fill="none" xmlns="http://www.w3.org/2000/svg">
<path d="M16.0054 12.6318C15.6092 12.3843 11.7849 10.1025 13.9555 10.0352L43.3036 10.0353C43.8942 10.0357 45.6434 10.0952 46.0856 10.0352C45.1915 10.2517 44.3398 10.301 43.4266 10.4538C41.671 10.7166 39.7419 11.2693 38.0524 11.79C35.567 12.556 36.3329 12.6391 33.6137 12.635L16.0054 12.6318Z" fill="#000F6E"/>
<path d="M9.65881 18.5619C9.20058 18.5619 8.74255 18.4788 8.37353 18.2071C7.83884 17.8135 7.21144 17.2305 6.83696 16.9796C4.74966 15.5809 9.38746 15.9423 9.83985 15.9427L32.8301 15.9473C36.0276 15.9491 35.4791 15.6626 38.4141 14.5841C41.5806 13.4205 44.5776 12.9307 47.921 12.7245C56.5693 12.5557 56.7475 14.2355 64.0587 17.3657C64.7117 17.6453 65.5422 17.6754 66.2474 17.7786L78.2448 19.5539C79.1072 19.6846 82.4282 19.7311 82.5206 20.7899C82.6474 22.2431 82.5398 23.7678 82.5635 25.232C82.5827 26.4115 79.691 26.7029 78.773 26.9163L73.6962 28.1113C73.5669 28.1417 73.448 28.0413 73.4385 27.9089C73.0965 23.0837 68.67 20.7741 64.7561 21.3808C58.7472 22.3123 53.6287 29.4653 47.548 29.4653H43.1802C39.17 29.4653 35.992 25.3449 32.8538 22.8482C29.5045 20.3059 25.519 20.904 23.0791 23.3861C20.5226 25.987 17.8038 29.4653 14.1568 29.4653C11.9938 29.4648 9.58069 29.1024 8.24287 27.4028C7.96217 27.0462 7.95459 26.7869 8.52295 26.7848C10.5498 26.7775 12.5836 26.8057 14.6138 26.8062C15.7944 26.8065 16.8007 25.9178 17.1764 24.7986C17.9629 22.4556 16.2884 18.5619 13.8169 18.5619H9.65881Z" fill="#000F6E"/>
<path d="M66.2506 33.1274C63.689 33.2625 61.5023 31.3175 61.3678 28.7846C61.2334 26.2518 63.2022 24.0912 65.7639 23.9603C68.3229 23.8296 70.5048 25.7735 70.6392 28.3035C70.7735 30.8335 68.8091 32.9926 66.2506 33.1274ZM65.8911 26.6446C64.8174 26.7341 64.0235 27.672 64.1234 28.7327C64.2234 29.7934 65.1788 30.5702 66.2507 30.462C67.3094 30.3553 68.0831 29.4247 67.9844 28.3771C67.8857 27.3294 66.9514 26.5562 65.8911 26.6446Z" fill="#000F6E"/>
<path d="M28.7869 33.1174C26.261 33.3857 23.9906 31.5859 23.7062 29.0899C23.4217 26.5939 25.2302 24.3397 27.7531 24.0455C30.2945 23.7492 32.5948 25.5534 32.8813 28.0677C33.1678 30.5821 31.3312 32.8472 28.7869 33.1174ZM28.0382 26.6535C26.9662 26.7781 26.2029 27.7435 26.3394 28.8022C26.476 29.8608 27.4599 30.6059 28.5292 30.4604C29.5837 30.317 30.3245 29.3606 30.1898 28.3166C30.0552 27.2727 29.0953 26.5307 28.0382 26.6535Z" fill="#000F6E"/>
</svg>
