<svg width="48" height="48" viewBox="0 0 48 48" fill="none" xmlns="http://www.w3.org/2000/svg">
<path d="M2.36035 24.3288C2.36035 14.2679 2.36035 9.2374 5.52929 6.11185C8.69824 2.98633 13.7986 2.98633 23.9992 2.98633C34.1998 2.98633 39.3002 2.98633 42.4693 6.11185C45.6381 9.2374 45.6381 14.2679 45.6381 24.3288C45.6381 34.3896 45.6381 39.4202 42.4693 42.5458C39.3002 45.6713 34.1998 45.6713 23.9992 45.6713C13.7986 45.6713 8.69824 45.6713 5.52929 42.5458C2.36035 39.4202 2.36035 34.3896 2.36035 24.3288Z" fill="#000F6E" stroke="white" stroke-width="4"/>
<path d="M26.2708 23.0394L33.0816 15.3594M27.2437 26.8794C27.2437 29.0002 25.5013 30.7194 23.3519 30.7194C21.2024 30.7194 19.46 29.0002 19.46 26.8794C19.46 24.7585 21.2024 23.0394 23.3519 23.0394C25.5013 23.0394 27.2437 24.7585 27.2437 26.8794Z" stroke="white" stroke-width="4" stroke-linecap="round"/>
<path d="M22 10.56C22 11.6646 22.8954 12.56 24 12.56C25.1046 12.56 26 11.6646 26 10.56H24H22ZM24 4.16003H22V10.56H24H26V4.16003H24Z" fill="white"/>
<path d="M22 38.4C22 37.2955 22.8954 36.4 24 36.4C25.1046 36.4 26 37.2955 26 38.4H24H22ZM24 44.8H22V38.4H24H26V44.8H24Z" fill="white"/>
<path d="M9.08121 23.5996C10.1858 23.5996 11.0812 24.495 11.0812 25.5996C11.0812 26.7042 10.1858 27.5996 9.08121 27.5996V25.5996V23.5996ZM2.59473 25.5996V23.5996H9.08121V25.5996V27.5996H2.59473V25.5996Z" fill="white"/>
<path d="M39.5672 27.5996C38.4627 27.5996 37.5672 26.7042 37.5672 25.5996C37.5672 24.495 38.4627 23.5996 39.5672 23.5996V25.5996V27.5996ZM46.0537 25.5996V27.5996H39.5672V25.5996V23.5996H46.0537V25.5996Z" fill="white"/>
</svg>
