<svg width="48" height="48" viewBox="0 0 48 48" fill="none" xmlns="http://www.w3.org/2000/svg">
<path d="M39.999 23C39.999 22.4477 39.5513 22 38.999 22C38.4467 22 37.999 21.5523 37.999 21V16C37.999 14.8954 38.8945 14 39.999 14H43.999C45.1036 14 45.999 14.8954 45.999 16V21C45.999 21.5523 45.5513 22 44.999 22C44.4467 22 43.999 22.4477 43.999 23V36C43.999 37.5913 43.3669 39.1174 42.2417 40.2426C41.1164 41.3679 39.5903 42 37.999 42C36.4077 42 34.8816 41.3679 33.7564 40.2426C32.6312 39.1174 31.999 37.5913 31.999 36V30C31.999 28.8954 31.1036 28 29.999 28C28.8945 28 27.999 28.8954 27.999 30V37C27.999 37.5523 28.4467 38 28.999 38C29.5513 38 29.999 38.4477 29.999 39V40C29.999 41.1046 29.1036 42 27.999 42H5.99902C4.89445 42 3.99902 41.1046 3.99902 40V39C3.99902 38.4477 4.44674 38 4.99902 38C5.55131 38 5.99902 37.5523 5.99902 37V8C5.99902 7.46957 6.20974 6.96086 6.58481 6.58579C6.95988 6.21071 7.46859 6 7.99902 6H25.999C26.5295 6 27.0382 6.21071 27.4132 6.58579C27.7883 6.96086 27.999 7.46957 27.999 8V20C27.999 22.2091 29.7899 24 31.999 24C33.0599 24 34.0773 24.4214 34.8274 25.1716C35.5776 25.9217 35.999 26.9391 35.999 28V36C35.999 36.5304 36.2097 37.0391 36.5848 37.4142C36.9599 37.7893 37.4686 38 37.999 38C38.5295 38 39.0382 37.7893 39.4132 37.4142C39.7883 37.0391 39.999 36.5304 39.999 36V23ZM16.999 38C20.865 38 23.999 34.866 23.999 31V17C23.999 13.134 20.865 10 16.999 10C13.133 10 9.99902 13.134 9.99902 17V31C9.99902 34.866 13.133 38 16.999 38Z" fill="#000F6E"/>
<path fill-rule="evenodd" clip-rule="evenodd" d="M16.999 10C20.865 10 23.999 13.134 23.999 17V31C23.999 34.866 20.865 38 16.999 38C13.133 38 9.99902 34.866 9.99902 31V17C9.99902 13.134 13.133 10 16.999 10Z" fill="#000F6E"/>
</svg>
