<svg width="31" height="31" viewBox="0 0 31 31" fill="none" xmlns="http://www.w3.org/2000/svg">
<path d="M15.5 0C6.93625 0 0 6.93625 0 15.5C0 24.0637 6.93625 31 15.5 31C24.0637 31 31 24.0637 31 15.5C31 6.93625 24.0637 0 15.5 0ZM17.6932 24.9395V27.9H13.5625V24.9085C10.9197 24.3427 8.65675 22.6455 8.494 19.6307H11.5243C11.6793 21.2582 12.7952 22.5215 15.6317 22.5215C18.6775 22.5215 19.3517 21.0025 19.3517 20.057C19.3517 18.7782 18.662 17.5615 15.221 16.74C11.377 15.8177 8.742 14.229 8.742 11.0515C8.742 8.39325 10.8888 6.65725 13.5625 6.076V3.1H17.6932V6.11475C20.5763 6.82 22.0177 8.99775 22.1185 11.3615H19.065C18.9797 9.641 18.073 8.47075 15.624 8.47075C13.299 8.47075 11.904 9.517 11.904 11.0205C11.904 12.3302 12.9115 13.1673 16.0347 13.981C19.1658 14.7948 22.5137 16.1278 22.5137 20.0415C22.5137 22.8703 20.3748 24.428 17.6932 24.9395Z" fill="white"/>
</svg>
