<svg width="44" height="44" viewBox="0 0 44 44" fill="none" xmlns="http://www.w3.org/2000/svg">
<path d="M43.9976 32.8044V41.448C43.9978 42.0669 43.7634 42.6628 43.3415 43.1156C42.9196 43.5684 42.3417 43.8442 41.7243 43.8876C40.6562 43.9609 39.7836 44 39.1089 44C17.5086 44 0 26.4904 0 4.88889C0 4.21422 0.0366646 3.34156 0.112438 2.27333C0.155757 1.65597 0.431619 1.07803 0.88436 0.65611C1.3371 0.234194 1.93302 -0.000279725 2.55186 6.27194e-07H11.1949C11.4981 -0.000306373 11.7906 0.1121 12.0156 0.315383C12.2405 0.518667 12.3819 0.798314 12.4122 1.1C12.4684 1.66222 12.5197 2.10956 12.5686 2.44933C13.0544 5.83959 14.0499 9.13692 15.5214 12.2296C15.7536 12.7184 15.602 13.3027 15.162 13.6156L9.88723 17.3849C13.1124 24.9002 19.1012 30.8893 26.6161 34.1147L30.3803 28.8493C30.5342 28.6342 30.7586 28.4799 31.0146 28.4134C31.2706 28.3468 31.5418 28.3722 31.7809 28.4851C34.873 29.9539 38.1693 30.947 41.5581 31.4307C41.8979 31.4796 42.3452 31.5333 42.9025 31.5871C43.2037 31.618 43.4828 31.7596 43.6855 31.9845C43.8883 32.2094 44.0004 32.5016 44 32.8044H43.9976Z" fill="#000F6E"/>
</svg>
