<svg width="193" height="43" viewBox="0 0 193 43" fill="none" xmlns="http://www.w3.org/2000/svg">
<g clip-path="url(#clip0_976_6389)">
<path d="M80.7027 20.8199V20.6499C81.497 20.2871 82.1633 19.6931 82.6147 18.9456C83.0661 18.1981 83.2815 17.3318 83.2327 16.4599C83.2623 15.8197 83.1563 15.1804 82.9217 14.584C82.6871 13.9876 82.3291 13.4475 81.8712 12.999C81.4133 12.5506 80.8658 12.2039 80.2647 11.9818C79.6635 11.7596 79.0222 11.667 78.3827 11.7099C77.1772 11.6989 75.976 11.8537 74.8127 12.1699V16.0999C75.5144 15.7616 76.2837 15.5872 77.0627 15.5899C77.2971 15.5593 77.5353 15.5801 77.7609 15.6508C77.9865 15.7215 78.194 15.8404 78.3691 15.9992C78.5441 16.1581 78.6825 16.3532 78.7746 16.5708C78.8668 16.7885 78.9105 17.0237 78.9027 17.2599C78.8844 17.7365 78.6788 18.1866 78.3305 18.5125C77.9822 18.8383 77.5194 19.0135 77.0427 18.9999H75.2927V22.8799H76.9027C78.3027 22.8799 78.9027 23.5499 78.9027 24.5699C78.9019 24.8067 78.8525 25.0409 78.7575 25.2578C78.6626 25.4747 78.5241 25.6699 78.3507 25.8311C78.1772 25.9923 77.9726 26.1163 77.7493 26.1952C77.526 26.2741 77.2889 26.3064 77.0527 26.2899C76.1145 26.3212 75.1823 26.1293 74.3327 25.7299L74.2627 29.4899C75.4427 30.1607 76.7862 30.4896 78.1427 30.4399C78.851 30.484 79.5606 30.3767 80.2242 30.1253C80.8879 29.8739 81.4904 29.4841 81.9918 28.9818C82.4931 28.4795 82.8818 27.8762 83.132 27.2121C83.3821 26.5479 83.4881 25.8382 83.4427 25.1299C83.5249 24.21 83.3008 23.2887 82.8053 22.5092C82.3098 21.7298 81.5706 21.1359 80.7027 20.8199Z" fill="#466BF1"/>
<path d="M61.433 12.02H53.043V30.1H57.203V16.53H61.433V12.02Z" fill="#466BF1"/>
<path d="M104.403 12H98.9033V30.1H102.993V24.1H104.363C108.363 24.1 109.663 20.37 109.663 17.99C109.663 15.61 108.253 12 104.403 12ZM104.003 20.15H103.003V16H104.003C104.923 16 105.513 16.58 105.513 18.08C105.513 20 104.523 20.17 104.003 20.17V20.15Z" fill="#466BF1"/>
<path d="M64.4629 12L60.9629 30.1H65.1029L65.6229 27H68.4829L68.9729 30.12H73.1129L69.6129 12H64.4629ZM66.2529 23L67.0329 17.48L67.8129 23H66.2529Z" fill="#466BF1"/>
<path d="M85.4336 30.1H89.5236V16.39H92.5036V30.1H96.5936V12.02H85.4336V30.1Z" fill="#466BF1"/>
<path d="M156.263 12.05L152.743 30.13H156.903L157.403 27H160.263L160.763 30.13H164.903L161.403 12.05H156.263ZM158.063 23.05L158.843 17.55L159.603 23.05H158.063Z" fill="#466BF1"/>
<path d="M117.263 11.76C112.423 11.76 110.793 16.41 110.793 21.04C110.793 25.67 112.423 30.32 117.263 30.32C122.103 30.32 123.743 25.67 123.743 21.04C123.743 16.41 122.113 11.76 117.263 11.76ZM117.263 25.93C115.823 25.93 115.093 24.22 115.093 21.04C115.093 17.86 115.823 16.15 117.263 16.15C118.703 16.15 119.443 17.86 119.443 21.04C119.443 24.22 118.713 25.93 117.263 25.93Z" fill="#466BF1"/>
<path d="M188.613 20.61L191.743 12.02H187.383L185.093 18.52H184.213L184.243 12.02H180.223V30.1H184.243L184.213 22.83H185.163L187.483 30.1H192.183L188.613 20.61Z" fill="#466BF1"/>
<path d="M173.533 18.55H170.673V12.02H166.673V30.1H170.673V22.86H173.533V30.1H177.523V12.03H173.533V18.55Z" fill="#466BF1"/>
<path d="M132.263 16.29L129.193 12.02H125.713V30.1H129.803V19.08L132.263 22.23L134.723 19.08V30.1H138.813V12.02H135.363L132.263 16.29Z" fill="#466BF1"/>
<path d="M146.313 18.76H145.573V16.36H150.993V12H141.583V30.1H146.453C147.513 30.1 151.933 29.64 151.963 24.16C151.963 19.57 148.533 18.76 146.313 18.76ZM146.163 26.47H145.573V22.37H146.163C146.663 22.37 147.943 22.37 147.943 24.26C147.943 26.15 146.663 26.47 146.163 26.47Z" fill="#466BF1"/>
<path d="M1.90312 21.27C1.85511 26.5658 3.90954 31.6645 7.61578 35.4476C11.322 39.2307 16.3774 41.3893 21.6731 41.45C26.9566 41.371 31.9941 39.2042 35.6853 35.4231C39.3764 31.642 41.4213 26.5539 41.3731 21.27C41.3731 10.13 32.5331 1.06 21.6731 1.06C16.3722 1.12067 11.3122 3.28344 7.60509 7.07304C3.898 10.8626 1.84711 15.969 1.90312 21.27ZM0.903119 21.27C0.867453 18.5089 1.3767 15.7678 2.4017 13.2037C3.42671 10.6396 4.94735 8.30283 6.87658 6.32716C8.80581 4.35149 11.1057 2.7757 13.6447 1.69001C16.1837 0.604307 18.9119 0.0300133 21.6731 0C33.1031 0 42.4131 9.53 42.4131 21.27C42.4131 33.01 33.0931 42.51 21.6731 42.51C18.9145 42.48 16.1888 41.9067 13.6517 40.8228C11.1147 39.739 8.81614 38.1659 6.8873 36.1934C4.95846 34.221 3.43719 31.8877 2.4104 29.3271C1.38361 26.7665 0.871426 24.0286 0.903119 21.27Z" fill="#466BF1"/>
<path d="M15.4736 7.84003C14.7686 8.16444 14.0985 8.55982 13.4736 9.02003C18.4136 6.77003 24.4736 6.92003 27.6836 8.39003C28.6836 8.88003 29.3836 9.17003 29.6836 9.75003C27.2264 8.96758 24.6495 8.62896 22.0736 8.75003C18.1184 8.92098 14.2425 9.91552 10.6936 11.67L9.8036 12.81C12.7336 11.03 18.1936 9.87003 21.2236 9.81003C24.0785 9.65849 26.9361 10.0522 29.6436 10.97C29.5832 11.2421 29.4618 11.4968 29.2886 11.7151C29.1154 11.9334 28.8948 12.1094 28.6436 12.23C18.9936 10.51 13.2936 12.54 8.1336 15.98L7.7636 17.12C10.6031 15.1978 13.7961 13.8588 17.1573 13.1807C20.5185 12.5027 23.981 12.499 27.3436 13.17C24.9036 14.05 21.9936 14.24 19.5636 14.82C17.5298 15.2089 15.5251 15.7369 13.5636 16.4C10.7536 17.34 9.0936 18.31 8.0536 19.55C7.52975 20.1031 7.18173 20.7991 7.0536 21.55C6.99131 21.9603 7.03256 22.3797 7.1736 22.77C7.33013 23.1412 7.55389 23.4802 7.8336 23.77C7.60865 24.0877 7.47644 24.4617 7.45172 24.8502C7.427 25.2387 7.51074 25.6264 7.6936 25.97C8.03677 26.4561 8.47158 26.8706 8.9736 27.19L8.9036 27.59C8.76784 28.1352 8.83538 28.7111 9.0936 29.21C9.65602 30.1225 10.4681 30.8547 11.4336 31.32C11.5557 32.0409 11.9063 32.7035 12.4336 33.21C14.8077 35.4294 17.8968 36.7275 21.1436 36.87C23.6023 37.0624 26.0677 36.5928 28.2836 35.51L29.4636 34.89C26.8546 35.8264 24.078 36.2046 21.3136 36C17.3136 35.66 13.7036 33 13.2536 32.2C13.3936 32.29 13.5836 32.36 13.7436 32.44C18.4536 34.76 24.5336 36.03 32.3136 32.78L32.9536 32.15C25.9036 34.35 19.6836 34.28 13.0336 30.72C13.0958 30.3766 13.2806 30.0674 13.5536 29.85C15.2615 30.6569 17.0566 31.2643 18.9036 31.66C21.2599 32.071 23.6546 32.2186 26.0436 32.1C29.0258 31.822 31.9382 31.0339 34.6536 29.77C34.8436 29.6 34.9336 29.31 35.1236 29.12C31.3943 30.5286 27.4291 31.2076 23.4436 31.12C20.4471 31.0016 17.5052 30.2806 14.7936 29C15.4236 28.74 16.0936 28.52 16.7936 28.32C19.0641 29.0286 21.4172 29.4387 23.7936 29.54C28.1679 29.5058 32.4658 28.3893 36.3036 26.29C36.4236 25.95 36.5436 25.59 36.5436 25.59C33.0229 27.3897 29.1459 28.3837 25.1936 28.5C23.2299 28.5147 21.2729 28.2692 19.3736 27.77C22.2136 27.24 25.7836 26.77 29.8036 25.77C31.8504 25.2263 33.7702 24.2851 35.4536 23C35.9548 22.6268 36.3515 22.1308 36.6054 21.5599C36.8594 20.9889 36.9621 20.3622 36.9036 19.74C36.7484 19.1846 36.3919 18.7069 35.9036 18.4C36.0896 18.1648 36.2203 17.8908 36.2861 17.5983C36.3518 17.3058 36.351 17.0022 36.2836 16.71C36.2287 16.3098 36.0998 15.9232 35.9036 15.57C35.5597 15.0909 35.1162 14.6917 34.6036 14.4C34.7014 13.8925 34.6348 13.3671 34.4136 12.9C33.6931 11.8255 32.6749 10.9845 31.4836 10.48C31.3778 10.0615 31.1797 9.67194 30.9036 9.34003C28.7677 7.41686 25.9977 6.34874 23.1236 6.34003H22.6736C20.1935 6.31443 17.7372 6.82616 15.4736 7.84003ZM30.6136 12.69C30.9039 12.4047 31.135 12.0649 31.2936 11.69C32.0081 12.0637 32.5522 12.6972 32.8136 13.46C32.094 13.1713 31.3597 12.921 30.6136 12.71V12.69ZM31.2036 15.69C30.0682 15.3142 28.9131 15.0004 27.7436 14.75C28.4028 14.5159 29.0205 14.1784 29.5736 13.75C30.5503 14.0123 31.5063 14.3465 32.4336 14.75C32.2936 14.96 31.4336 15.75 31.2336 15.75L31.2036 15.69ZM33.2636 16.54C33.5759 16.2946 33.8608 16.0164 34.1136 15.71C34.7536 16.27 34.9336 16.66 34.6336 17.27C34.2032 16.9664 33.7444 16.7051 33.2636 16.49V16.54ZM8.9736 22.54C7.2236 20 13.3036 18.26 14.4636 17.9C17.58 16.9729 20.7674 16.304 23.9936 15.9C25.7848 15.6669 27.6057 15.8518 29.3136 16.44C24.0836 17.9 18.9036 18.35 14.0136 19.83C10.0436 21 8.9936 22.5 8.9736 22.5V22.54ZM10.2736 23.73C12.1136 22.13 15.8836 21.23 17.2736 20.92C21.6436 19.92 25.7136 19.34 27.3936 18.92C28.9174 18.5694 30.4042 18.0739 31.8336 17.44C32.4804 17.6553 33.0933 17.9617 33.6536 18.35C33.0257 18.8611 32.3062 19.248 31.5336 19.49C28.4697 20.4955 25.3295 21.2513 22.1436 21.75C19.7533 22.1096 17.3834 22.5936 15.0436 23.2C13.8619 23.4786 12.736 23.9554 11.7136 24.61C11.2055 24.3497 10.7233 24.0417 10.2736 23.69V23.73ZM13.7036 25.67C14.5017 25.3323 15.324 25.0549 16.1636 24.84C20.3236 23.84 23.9936 23.61 29.0536 22.2C30.9505 21.795 32.7549 21.0387 34.3736 19.97C34.5336 19.82 34.7036 19.7 34.8636 19.56C36.3336 21.88 30.8636 23.68 27.0636 24.51C25.0636 24.9034 23.0936 25.28 21.1536 25.64C19.4592 25.8861 17.7872 26.2673 16.1536 26.78C15.318 26.4385 14.5002 26.0547 13.7036 25.63V25.67ZM9.2736 24.9C9.6536 25.14 9.9436 25.34 10.3936 25.58C10.2236 25.72 10.0136 25.87 9.8436 26.04C9.4736 25.82 9.0936 25.34 9.2736 24.9ZM11.2736 27.13C11.5445 26.8889 11.8356 26.6715 12.1436 26.48C12.8536 26.82 13.5936 27.13 14.2736 27.48C13.7988 27.6439 13.3401 27.8515 12.9036 28.1C12.3336 27.78 11.7736 27.46 11.2236 27.1L11.2736 27.13ZM10.6536 28.31C11.0636 28.58 11.4636 28.8 11.8636 29.02C11.7101 29.2258 11.5918 29.4556 11.5136 29.7C10.9036 29.19 10.6036 28.78 10.6236 28.31H10.6536Z" fill="#466BF1"/>
</g>
<defs>
<clipPath id="clip0_976_6389">
<rect width="191.29" height="42.51" fill="white" transform="translate(0.90332)"/>
</clipPath>
</defs>
</svg>
