<svg width="166" height="34" viewBox="0 0 166 34" fill="none" xmlns="http://www.w3.org/2000/svg">
<g clip-path="url(#clip0_976_6405)">
<mask id="mask0_976_6405" style="mask-type:luminance" maskUnits="userSpaceOnUse" x="0" y="0" width="166" height="34">
<path d="M165.097 0.754883H0.0966797V33.7549H165.097V0.754883Z" fill="white"/>
</mask>
<g mask="url(#mask0_976_6405)">
<path fill-rule="evenodd" clip-rule="evenodd" d="M0.0966797 17.2518C0.0966797 8.14775 7.38017 0.763031 16.3698 0.754883V6.71562C10.6296 6.72377 5.98181 11.4377 5.98181 17.2518C5.98181 23.0741 10.6417 27.7941 16.392 27.7941C22.1041 27.7941 26.7981 23.1189 26.7981 17.2132L32.6853 17.2192C32.6853 26.3661 25.3938 33.7549 16.392 33.7549C7.38821 33.7549 0.0966797 26.3661 0.0966797 17.2518Z" fill="#222222"/>
<path fill-rule="evenodd" clip-rule="evenodd" d="M9.20117 17.2519C9.20117 13.2102 12.4404 9.93433 16.4283 9.93433C20.4181 9.93433 23.6575 13.2102 23.6575 17.2519C23.6575 21.2956 20.4181 24.5694 16.4283 24.5694C12.4404 24.5694 9.20117 21.2956 9.20117 17.2519Z" fill="#222222"/>
<path fill-rule="evenodd" clip-rule="evenodd" d="M21.4434 7.98285C21.4434 5.66456 23.2996 3.78833 25.5867 3.78833C27.8799 3.78833 29.7341 5.66456 29.7341 7.98285C29.7341 10.2991 27.8799 12.1794 25.5867 12.1794C23.2996 12.1794 21.4434 10.2991 21.4434 7.98285Z" fill="#222222"/>
<path fill-rule="evenodd" clip-rule="evenodd" d="M148.691 12.1366L148.188 14.6402C147.008 20.0856 146.569 21.8396 145.545 27.2543L145.317 27.4499L142.058 27.5456L141.897 27.3216L143.211 21.7439L143.595 19.9165C142.194 19.886 140.792 19.8616 139.392 19.8616C138.297 19.8616 137.464 19.8737 136.614 19.8982C136.133 22.0922 135.732 24.0214 135.118 27.2543L134.891 27.4499L131.626 27.5456L131.467 27.3216L132.778 21.7439L133.296 19.3135C134.156 15.4877 134.318 14.6464 134.83 11.1139L135.056 10.8898C136.555 10.6923 136.909 10.629 138.445 10.3052L138.61 10.5292L138.261 12.1366L137.764 14.6402L137.243 17.0094C138.418 17.0401 139.595 17.0583 140.778 17.0583C142.026 17.0583 142.847 17.0339 144.235 17.0074C144.684 14.9336 144.864 13.801 145.257 11.1139L145.482 10.8898C146.985 10.6923 147.335 10.629 148.875 10.3052L149.034 10.5292L148.691 12.1366Z" fill="#222222"/>
<path fill-rule="evenodd" clip-rule="evenodd" d="M112.726 20.4276C112.017 23.2348 110.051 28.0853 104.008 28.0853C99.7293 28.0853 97.3799 25.8384 97.3799 21.4076C97.3799 20.8351 97.4243 20.1974 97.5181 19.5294C97.5407 19.3623 97.5625 19.2033 97.5842 19.0322C98.7501 11.6924 101.893 4.73541 108.786 4.66615C109.704 4.65392 111.568 4.55818 112.836 4.25464L112.376 7.18612C111.097 7.51818 109.076 7.69134 107.896 7.69745C106.432 7.71375 105.42 8.27804 104.718 8.95845C104.37 9.29454 104.098 9.66533 103.891 10.0015C103.683 10.3357 103.531 10.6412 103.42 10.8714C104.342 10.58 105.349 10.3967 106.484 10.3967C110.695 10.3967 113.206 12.7761 113.206 16.9747C113.206 18.1155 113.016 19.2869 112.726 20.4276ZM109.379 19.4173C109.605 18.4741 109.763 17.533 109.763 16.6202C109.763 13.3302 107.674 12.7761 106.484 12.7761C101.435 12.7761 100.79 20.7211 100.79 21.925C100.79 24.5326 102.333 25.6713 104.074 25.6713C107.514 25.6713 108.8 22.0921 109.379 19.4173Z" fill="#222222"/>
<path fill-rule="evenodd" clip-rule="evenodd" d="M154.21 17.4251C154.977 16.7507 155.421 16.3271 156.475 15.2942C157.594 14.1921 160.316 11.34 160.828 10.788L161.181 10.5965H164.864L164.959 10.8898C164.638 11.1792 164.476 11.3095 163.194 12.4095C162.681 12.8353 162.367 13.1572 161.759 13.7072L157.594 17.5961L162.558 27.1606L162.367 27.4153L158.812 27.5172L158.554 27.3216C157.721 25.3088 157.5 24.8607 156.349 22.4894L154.107 17.8875C153.401 21.0757 152.967 23.0843 152.174 27.2543L151.952 27.4499L148.685 27.5456L148.528 27.3216L149.84 21.7439L150.353 19.3135C151.214 15.4877 151.375 14.6464 151.886 11.1139L152.111 10.8898C153.618 10.6923 153.967 10.629 155.506 10.3052L155.667 10.5292L155.323 12.1366L154.822 14.6402L154.21 17.4251Z" fill="#222222"/>
<path fill-rule="evenodd" clip-rule="evenodd" d="M132.036 10.6575L131.876 10.3968L127.435 10.3662C124.477 10.3662 120.331 10.5596 117.338 14.1084C115.988 15.7301 114.766 18.525 114.766 21.0898C114.766 25.1499 117.436 27.4946 120.715 27.4946C123.446 27.4946 124.867 26.2907 125.411 25.8384L125.186 27.1361L125.345 27.3683L128.367 27.3011L128.596 27.0729C129.236 23.2003 129.466 21.9699 130.591 16.9625L132.036 10.6575ZM125.89 23.3346C125.538 23.6199 125.185 23.9519 124.83 24.1738C123.996 24.6934 122.902 24.9236 122.035 24.9236C119.105 24.9236 118.27 22.422 118.27 20.8635C118.27 20.7025 118.334 16.508 121.711 14.1734C123.61 12.8738 125.7 12.8085 126.761 12.8085C127.244 12.8085 127.723 12.8391 128.207 12.8391L125.89 23.3346Z" fill="#222222"/>
<path fill-rule="evenodd" clip-rule="evenodd" d="M48.4165 24.394C50.8671 24.394 52.012 21.8089 52.7564 18.4822C53.2796 16.1395 53.8469 12.7048 50.8932 12.7048C48.3742 12.7048 47.2596 15.1514 46.5171 18.4822C45.823 21.5726 45.6661 24.394 48.4165 24.394ZM47.2784 27.9958C43.7915 27.9958 38.7716 26.8754 40.5905 18.7205C41.2705 15.6587 43.359 9.17236 51.9503 9.17236C60.3042 9.17236 59.0607 16.1049 58.5477 18.5515C57.0065 25.4452 52.8477 27.9958 47.2784 27.9958Z" fill="#222222"/>
<path fill-rule="evenodd" clip-rule="evenodd" d="M67.7028 27.5884C66.0892 27.5884 63.4394 27.5884 62.3268 27.623L62.1376 27.4213C62.4455 26.3314 63.2 23.4101 63.9967 19.841C64.6386 16.9524 65.2101 14.4079 65.4334 13.2488C64.0833 13.2814 62.0049 13.2814 60.9888 13.318L60.8057 13.0797C61.0733 12.1976 61.4495 10.6717 61.6849 9.7551L61.9928 9.57986C62.8902 9.61447 66.3065 9.64907 69.055 9.64907C72.3788 9.64907 75.6141 9.57986 76.2921 9.54517L76.5215 9.7204C76.274 10.5292 75.8374 12.1976 75.6141 13.0451L75.2962 13.2488C73.9683 13.2182 72.9603 13.2182 71.0408 13.2182C70.8758 13.9597 70.3567 16.1395 69.4936 20.0101C68.8437 22.9375 68.3085 25.6185 67.9966 27.3153L67.7028 27.5884Z" fill="#222222"/>
<path fill-rule="evenodd" clip-rule="evenodd" d="M86.3485 13.6562C85.2697 13.6562 84.0586 13.6888 83.5192 13.6888C83.3522 14.4385 82.6963 17.2253 82.0927 19.9408C81.3784 23.1352 80.7446 26.1277 80.4992 27.3806L80.1833 27.5884C78.5395 27.5884 76.4269 27.5884 74.7388 27.623L74.5537 27.4213C74.8998 26.0238 75.7791 22.2225 76.6241 18.4476C77.4711 14.6463 78.2055 10.9081 78.4429 9.85283L78.7246 9.61447C80.5394 9.61447 82.3683 9.68368 86.8653 9.68368C90.3881 9.68368 93.8003 9.57986 95.6212 9.54517L95.7745 9.7551C95.5391 10.6717 94.5273 15.0517 93.5574 19.3969C92.7743 22.9009 92.0582 26.3945 91.8731 27.3806L91.6252 27.5884C90.1829 27.5884 87.5328 27.5884 86.1509 27.623L86.0018 27.3806C86.2974 26.1949 86.9457 23.4448 87.7062 20.0427C88.2816 17.4616 88.8637 14.7115 89.0932 13.6888C88.553 13.6888 87.3561 13.6562 86.3485 13.6562Z" fill="#222222"/>
</g>
</g>
<defs>
<clipPath id="clip0_976_6405">
<rect width="165" height="33" fill="white" transform="translate(0.0966797 0.754883)"/>
</clipPath>
</defs>
</svg>
