<svg width="103" height="17" viewBox="0 0 103 17" fill="none" xmlns="http://www.w3.org/2000/svg">
<g clip-path="url(#clip0_976_6355)">
<path d="M46.0536 4.90662L48.2016 3.30762H41.0126V12.8876H48.2016V11.2876H43.0666V8.84162H47.4546V7.24262H43.0666V4.90662H46.0536ZM35.5826 7.03962H33.0926V4.90662H37.0766L39.2236 3.30762H31.0396V12.8876H35.3186C37.7146 12.8876 39.0986 11.7896 39.0986 9.87762C39.0986 8.04262 37.8546 7.03962 35.5826 7.03962ZM35.2406 11.2876H33.0936V8.63762H35.2406C36.5476 8.63762 37.1546 9.07762 37.1546 9.97062C37.1546 10.8646 36.5006 11.2876 35.2406 11.2876ZM54.0196 3.30762H50.1146V12.8876H52.1686V10.1746H54.0356C56.5256 10.1746 58.0806 8.85762 58.0806 6.74162C58.0806 4.62462 56.5236 3.30762 54.0196 3.30762ZM53.9736 8.57562H52.1536V4.90662H53.9736C55.2956 4.90662 56.0116 5.56562 56.0116 6.74162C56.0116 7.91662 55.2956 8.57562 53.9736 8.57562ZM27.5236 10.8176C26.98 11.1161 26.3698 11.2726 25.7496 11.2726C23.8976 11.2726 22.5596 9.93962 22.5596 8.10562C22.5596 6.27062 23.8976 4.93862 25.7496 4.93862C26.4201 4.92871 27.0755 5.13759 27.6166 5.53362L29.0946 4.43662L29.0016 4.34262C28.1456 3.57462 26.9946 3.18262 25.6876 3.18262C24.2716 3.18262 22.9806 3.66862 22.0466 4.54662C21.5812 5.00009 21.2139 5.54445 20.9677 6.14587C20.7216 6.74729 20.6017 7.39291 20.6156 8.04262C20.6064 8.70107 20.7282 9.35479 20.9739 9.96577C21.2195 10.5767 21.5842 11.1328 22.0466 11.6016C23.0232 12.529 24.3251 13.0355 25.6716 13.0116C27.1496 13.0116 28.4416 12.4946 29.3126 11.5546L27.9906 10.5666L27.5236 10.8176ZM82.7726 3.32362V12.9036H84.8266V8.98362H89.1996V12.9036H91.2536V3.32362H89.1996V7.25862H84.8276V3.32362H82.7726ZM79.2416 12.9036H81.4036L77.3896 3.32362H75.3046L71.2126 12.9036H73.2826L74.1066 10.9736H78.4636L79.2416 12.9036ZM74.7286 9.37562L76.3166 5.53362L77.8096 9.37562H74.7296H74.7286ZM95.8586 9.03062H97.1336L100.277 12.8866H102.922L98.7216 7.93262L102.393 3.30762H100.044L96.9936 7.41562H95.8596V3.30762H93.8056V12.8876H95.8586V9.02962V9.03062ZM64.4286 7.05462V4.92262H69.7966V3.32262H62.3756V12.9026H66.6536C69.0506 12.9026 70.4346 11.8056 70.4346 9.89262C70.4346 8.05862 69.1896 7.05462 66.9186 7.05462H64.4286ZM64.4286 11.3036V8.65362H66.5766C67.8826 8.65362 68.4896 9.09362 68.4896 9.98662C68.4896 10.8806 67.8516 11.3196 66.5766 11.3196H64.4296L64.4286 11.3036ZM14.1896 3.24462C14.5626 3.73062 14.8736 4.26462 15.1386 4.82862L7.94964 10.1746L4.93164 8.26162V5.97262L7.93464 7.86962L14.1896 3.24462Z" fill="#21A038"/>
<path d="M1.86688 8.106C1.86688 7.996 1.86688 7.902 1.88288 7.792L0.0628798 7.698C0.0628798 7.823 0.0468798 7.965 0.0468798 8.09C0.0445618 10.1988 0.878083 12.2225 2.36488 13.718L3.65588 12.418C3.08691 11.8536 2.63576 11.1818 2.32864 10.4415C2.02153 9.7013 1.86457 8.90741 1.86688 8.106Z" fill="url(#paint0_linear_976_6355)"/>
<path d="M7.93523 1.99098C8.04423 1.99098 8.13723 1.99098 8.24623 2.00698L8.34023 0.171982C8.21523 0.171982 8.07523 0.156982 7.95023 0.156982C6.91102 0.157291 5.88222 0.363939 4.92349 0.76494C3.96476 1.16594 3.0952 1.75331 2.36523 2.49298L3.65623 3.79398C4.21352 3.22344 4.87922 2.77003 5.61422 2.46041C6.34921 2.15078 7.13868 1.99118 7.93623 1.99098H7.93523Z" fill="url(#paint1_linear_976_6355)"/>
<path d="M7.9343 14.2199C7.8253 14.2199 7.7323 14.2199 7.6233 14.2039L7.5293 16.0399C7.6533 16.0399 7.7933 16.0549 7.9173 16.0549C8.95668 16.0548 9.98567 15.8482 10.9446 15.4472C11.9035 15.0462 12.7732 14.4587 13.5033 13.7189L12.2123 12.4189C11.6581 12.9933 10.9932 13.4491 10.2576 13.7589C9.52212 14.0686 8.73137 14.2258 7.9333 14.2209L7.9343 14.2199Z" fill="url(#paint2_linear_976_6355)"/>
<path d="M11.3585 3.05665L12.8985 1.91265C11.4973 0.768545 9.74454 0.14238 7.93555 0.139648V1.97365C9.15939 1.98187 10.3523 2.35995 11.3585 3.05665Z" fill="url(#paint3_linear_976_6355)"/>
<path d="M15.8397 8.10571C15.8397 7.61971 15.7927 7.14871 15.7147 6.67871L14.0197 7.94871V8.10571C14.0209 8.9593 13.8427 9.80362 13.4968 10.584C13.1509 11.3643 12.645 12.0633 12.0117 12.6357L13.2417 14.0007C14.0612 13.2531 14.7156 12.3425 15.163 11.3274C15.6103 10.3123 15.8408 9.21502 15.8397 8.10571Z" fill="#21A038"/>
<path d="M7.93594 14.2202C7.08615 14.2203 6.24601 14.0402 5.471 13.6916C4.69598 13.3431 4.00373 12.8341 3.43994 12.1982L2.08594 13.4362C2.821 14.2608 3.72233 14.9204 4.73061 15.3716C5.73889 15.8229 6.83129 16.0555 7.93594 16.0542V14.2202Z" fill="url(#paint4_linear_976_6355)"/>
<path d="M3.87391 3.57496L2.64491 2.20996C1.82377 2.95652 1.16831 3.86696 0.720813 4.88252C0.273319 5.89808 0.0437448 6.99619 0.0469072 8.10596H1.86691C1.86703 7.25252 2.04564 6.40855 2.39128 5.62823C2.73692 4.84792 3.24194 4.14852 3.87391 3.57496Z" fill="url(#paint5_linear_976_6355)"/>
</g>
<defs>
<linearGradient id="paint0_linear_976_6355" x1="2.17088" y1="13.495" x2="0.311879" y2="8.081" gradientUnits="userSpaceOnUse">
<stop offset="0.144" stop-color="#F2E913"/>
<stop offset="0.304" stop-color="#E7E518"/>
<stop offset="0.582" stop-color="#CADB26"/>
<stop offset="0.891" stop-color="#A3CD39"/>
</linearGradient>
<linearGradient id="paint1_linear_976_6355" x1="2.88423" y1="2.28598" x2="7.60323" y2="0.473982" gradientUnits="userSpaceOnUse">
<stop offset="0.059" stop-color="#0FA8E0"/>
<stop offset="0.538" stop-color="#0099F9"/>
<stop offset="0.923" stop-color="#0291EB"/>
</linearGradient>
<linearGradient id="paint2_linear_976_6355" x1="7.4233" y1="14.4939" x2="13.0483" y2="13.2129" gradientUnits="userSpaceOnUse">
<stop offset="0.123" stop-color="#A3CD39"/>
<stop offset="0.285" stop-color="#86C339"/>
<stop offset="0.869" stop-color="#21A038"/>
</linearGradient>
<linearGradient id="paint3_linear_976_6355" x1="7.56155" y1="1.30865" x2="12.2385" y2="2.76365" gradientUnits="userSpaceOnUse">
<stop offset="0.057" stop-color="#0291EB"/>
<stop offset="0.79" stop-color="#0C8ACB"/>
</linearGradient>
<linearGradient id="paint4_linear_976_6355" x1="2.54894" y1="13.7272" x2="7.57294" y2="15.6182" gradientUnits="userSpaceOnUse">
<stop offset="0.132" stop-color="#F2E913"/>
<stop offset="0.298" stop-color="#EBE716"/>
<stop offset="0.531" stop-color="#D9E01F"/>
<stop offset="0.802" stop-color="#BBD62D"/>
<stop offset="0.983" stop-color="#A3CD39"/>
</linearGradient>
<linearGradient id="paint5_linear_976_6355" x1="1.44191" y1="8.32696" x2="3.45091" y2="3.05996" gradientUnits="userSpaceOnUse">
<stop offset="0.07" stop-color="#A3CD39"/>
<stop offset="0.26" stop-color="#81C55F"/>
<stop offset="0.922" stop-color="#0FA8E0"/>
</linearGradient>
<clipPath id="clip0_976_6355">
<rect width="103" height="17" fill="white"/>
</clipPath>
</defs>
</svg>
