<svg width="141" height="33" viewBox="0 0 141 33" fill="none" xmlns="http://www.w3.org/2000/svg">
<mask id="mask0_976_6346" style="mask-type:luminance" maskUnits="userSpaceOnUse" x="0" y="7" width="141" height="19">
<path d="M0.730469 7.5H140.361V25.5H0.730469V7.5Z" fill="white"/>
</mask>
<g mask="url(#mask0_976_6346)">
<path d="M27.9658 10.8352C29.8988 10.8352 31.4778 11.6852 32.1418 12.3202L31.0298 13.6832C30.1616 12.9631 29.0746 12.559 27.9468 12.5372C25.5168 12.5372 24.0018 14.2092 24.0018 16.5002C24.0018 18.7912 25.4278 20.4602 27.9648 20.4602C29.1903 20.4375 30.3658 19.9705 31.2728 19.1462L32.3258 20.5542C31.6608 21.2512 30.0038 22.1622 27.9618 22.1622C24.3868 22.1622 22.1738 19.7572 22.1738 16.5002C22.1738 13.2442 24.4348 10.8352 27.9658 10.8352ZM38.9948 10.8352C42.3028 10.8352 44.7088 13.2412 44.7088 16.5002C44.7088 19.7602 42.3028 22.1622 38.9948 22.1622C35.6878 22.1622 33.2818 19.7572 33.2818 16.5002C33.2818 13.2442 35.6848 10.8352 38.9948 10.8352ZM38.9948 20.4572C41.2378 20.4572 42.9048 18.7702 42.9048 16.4972C42.9048 14.2242 41.2468 12.5342 38.9948 12.5342C36.7428 12.5342 35.0858 14.2212 35.0858 16.4972C35.0858 18.7732 36.7518 20.4602 38.9958 20.4602L38.9948 20.4572ZM56.0958 18.7732C56.0958 20.3672 55.0738 21.9162 52.4278 21.9162H46.6538V11.0692H52.0878C54.2858 11.0692 55.5548 12.4312 55.5548 13.9652C55.5548 14.8312 55.1518 15.6192 54.1928 16.2532C55.1668 16.5902 56.0958 17.2882 56.0958 18.7732ZM48.4338 12.7832V15.6642L51.8708 15.6462C53.0918 15.6462 53.7268 14.9662 53.7268 14.1602C53.7268 13.4182 53.1848 12.7832 52.1028 12.7832H48.4338ZM52.5358 20.2132C53.7898 20.2132 54.2708 19.5162 54.2708 18.7582C54.2708 17.9382 53.6958 17.2732 52.5658 17.2732H48.4338V20.2132H52.5358ZM63.2138 16.3292L68.0248 21.9162H65.6428L61.6438 17.1802H59.5868V21.9162H57.8068V11.0692H59.5868V15.5562H61.6438L65.5538 11.0692H67.9228L63.2138 16.3292Z" fill="#003790"/>
<path d="M73.5069 10.8352C76.8149 10.8352 79.2199 13.2412 79.2199 16.5002C79.2199 19.7602 76.8149 22.1622 73.5069 22.1622C70.1989 22.1622 67.7939 19.7572 67.7939 16.5002C67.7939 13.2442 70.1939 10.8352 73.5069 10.8352ZM73.5069 20.4572C75.7499 20.4572 77.4159 18.7702 77.4159 16.4972C77.4159 14.2242 75.7589 12.5342 73.5059 12.5342C71.2549 12.5342 69.5979 14.2212 69.5979 16.4972C69.5979 18.7732 71.2669 20.4602 73.5069 20.4602V20.4572ZM91.2089 11.0702H92.9169V21.8952H91.1369V13.8692L87.5769 18.6202H86.4939L82.9339 13.8692V21.9162H81.1539V11.0692H82.8709L87.0349 16.6262L91.2089 11.0702ZM101.084 15.5082C103.466 15.5082 104.768 16.9002 104.768 18.6952C104.768 20.4902 103.466 21.9152 101.207 21.9152H95.3229V11.0702H103.757V12.7842H97.1059V15.5092L101.084 15.5082ZM101.129 20.2142C102.368 20.2142 102.933 19.5312 102.933 18.7102C102.933 17.8902 102.377 17.2072 101.129 17.2072H97.1059V20.2142H101.129ZM114.655 21.9162L113.479 19.2092H108.367L107.191 21.9162H105.246L109.949 11.0902H111.915L116.621 21.9162H114.655ZM109.053 17.5822H112.781L110.926 13.2642L109.053 17.5822ZM125.967 11.0702H127.747V21.8952H125.967V17.2732H119.701V21.9162H117.92V11.0692H119.701V15.5792H125.967V11.0702ZM135.563 16.3292L140.359 21.9162H137.992L133.984 17.1802H131.927V21.9162H130.147V11.0692H131.927V15.5562H133.984L137.893 11.0812H140.263L135.563 16.3292Z" fill="#003790"/>
<path d="M0.730473 16.4971C0.72929 17.6796 0.961231 18.8507 1.41303 19.9435C1.86483 21.0363 2.52763 22.0294 3.36351 22.8658C4.19939 23.7022 5.19197 24.3657 6.28447 24.8182C7.37697 25.2708 8.54796 25.5035 9.73047 25.5031H10.0905V22.0781H9.73047C8.98881 22.0921 8.25178 21.9582 7.56249 21.6841C6.8732 21.4099 6.24547 21.0012 5.71599 20.4816C5.18652 19.9621 4.76594 19.3422 4.47882 18.6582C4.19171 17.9742 4.04383 17.2399 4.04383 16.4981C4.04383 15.7563 4.19171 15.0219 4.47882 14.3379C4.76594 13.654 5.18652 13.0341 5.71599 12.5145C6.24547 11.995 6.8732 11.5862 7.56249 11.3121C8.25178 11.038 8.98881 10.904 9.73047 10.9181H10.0905V7.50708H9.73047C7.34526 7.50708 5.05759 8.45392 3.37005 10.1396C1.6825 11.8252 0.733123 14.1119 0.730473 16.4971Z" fill="#FC5055"/>
<path d="M11.5282 7.67993V12.3599H9.72415C9.17296 12.3478 8.62489 12.4459 8.11212 12.6485C7.59935 12.851 7.1322 13.154 6.73809 13.5395C6.34398 13.9251 6.03085 14.3854 5.81707 14.8936C5.60329 15.4018 5.49316 15.9476 5.49316 16.4989C5.49316 17.0503 5.60329 17.596 5.81707 18.1042C6.03085 18.6124 6.34398 19.0728 6.73809 19.4583C7.1322 19.8439 7.59935 20.1468 8.11212 20.3494C8.62489 20.5519 9.17296 20.65 9.72415 20.6379H11.5282V25.3169C13.5605 24.9019 15.3871 23.7975 16.699 22.1907C18.0108 20.5839 18.7274 18.5733 18.7274 16.4989C18.7274 14.4246 18.0108 12.414 16.699 10.8071C15.3871 9.20033 13.5605 8.09598 11.5282 7.68093V7.67993Z" fill="#003790"/>
</g>
</svg>
