<svg width="109" height="39" viewBox="0 0 109 39" fill="none" xmlns="http://www.w3.org/2000/svg">
<g clip-path="url(#clip0_976_6366)">
<path d="M54.2666 18.0261C53.5145 17.7368 52.5308 17.6502 51.4603 17.6502H45.4999V15.799H55.7423V12.6172H41.3047V26.3855H51.0842C52.444 26.3855 53.4564 26.2699 54.2089 25.9804C55.8002 25.373 56.8707 23.8979 56.8707 21.9599C56.8707 19.9932 55.858 18.6336 54.2666 18.0261ZM52.1835 22.7988C51.9522 22.8856 51.6339 22.9144 51.2286 22.9144H45.4999V20.7161H51.2286C51.6917 20.7161 52.0677 20.7452 52.3572 20.8897C52.7043 21.0633 52.878 21.3815 52.878 21.7863C52.878 22.1913 52.6755 22.6252 52.1835 22.7988Z" fill="#333333"/>
<path d="M68.6351 12.6172H62.5014L56.8594 26.3855H61.6045L62.3856 24.3896H68.7508L69.561 26.3855H74.2772L68.6351 12.6172ZM63.4271 21.3524L65.4237 15.799H65.7419L67.7382 21.3524H63.4271Z" fill="#333333"/>
<path d="M79.6756 21.266V26.3856H75.4805V12.6172H79.6756V17.6503H86.4169V12.6172H90.6123V26.3856H86.4169V21.266H79.6756Z" fill="#333333"/>
<path d="M97.2539 21.1792V26.3856H93.0586V12.6172H97.2539V17.795H98.4111L103.475 12.6172H108.74L102.028 19.2121L109.001 26.3856H103.417L98.4111 21.1792H97.2539Z" fill="#333333"/>
<path d="M0 4.58789H33.2737V20.1706C33.2737 24.4593 30.9851 28.4225 27.2702 30.5671L16.637 36.7056L6.00356 30.5671C2.28851 28.4225 3.81359e-06 24.4593 3.81359e-06 20.1706L0 4.58789Z" fill="#FFDD2D"/>
<path fill-rule="evenodd" clip-rule="evenodd" d="M9.17969 12.6172V17.7878C9.88692 16.9894 11.1728 16.4491 12.6431 16.4491H14.2408V22.4598C14.2408 24.0589 13.8062 25.6248 13.1614 26.3947H20.1113C19.4679 25.624 19.0343 24.0601 19.0343 22.4629V16.4491H20.6321C22.1024 16.4491 23.3882 16.9894 24.0954 17.7878V12.6172H9.17969Z" fill="#333333"/>
</g>
<defs>
<clipPath id="clip0_976_6366">
<rect width="109" height="39" fill="white"/>
</clipPath>
</defs>
</svg>
