<svg width="88" height="33" viewBox="0 0 88 33" fill="none" xmlns="http://www.w3.org/2000/svg">
<g clip-path="url(#clip0_976_6342)">
<path d="M25.43 4.65001H4.528L6.033 0.51001H26.936L25.43 4.65001ZM24.678 6.72101H3.765L2.259 10.862H23.162L24.678 6.72101ZM22.418 12.914H1.507L0 17.055H20.885L22.419 12.915L22.418 12.914Z" fill="#009FDF"/>
<path d="M75.2384 27.4181H79.0024C79.5375 27.4819 80.0801 27.4132 80.5824 27.2179C81.0846 27.0225 81.5311 26.7067 81.8824 26.2981C82.399 25.6221 82.6591 24.7848 82.6164 23.9351C82.6518 23.3946 82.5525 22.8539 82.3275 22.3612C82.1026 21.8685 81.759 21.4394 81.3274 21.1121C80.6288 20.6547 79.7979 20.4426 78.9654 20.5091H75.2384V27.4181ZM70.2964 31.5871V6.72107H86.4764L85.0544 10.8911H75.2384V16.3961H79.2384C82.4664 16.3961 84.1414 17.1681 85.2984 18.1561C86.1262 18.8889 86.7773 19.7998 87.2029 20.8202C87.6284 21.8406 87.8173 22.9442 87.7554 24.0481C87.8191 25.2368 87.5847 26.4226 87.0735 27.4977C86.5623 28.5728 85.7906 29.5031 84.8284 30.2041C83.2754 31.2761 81.6484 31.5781 78.3344 31.5781L70.2964 31.5871ZM55.9724 31.5871V10.8811H48.7824V6.72107H68.7444L67.3224 10.8911H60.9604V31.5961L55.9724 31.5871ZM36.0474 16.6791H38.8714C39.4488 16.7184 40.0288 16.674 40.5934 16.5471C41.1806 16.3594 41.6866 15.9779 42.0285 15.465C42.3705 14.9521 42.528 14.3382 42.4754 13.7241C42.5539 13.1137 42.4056 12.4957 42.0587 11.9873C41.7118 11.479 41.1904 11.1156 40.5934 10.9661C39.977 10.8228 39.3436 10.7655 38.7114 10.7961H36.0474V16.6791ZM36.0474 20.9801V27.5021H39.4924C40.4416 27.6105 41.3959 27.3474 42.1554 26.7681C42.5057 26.4437 42.7801 26.0462 42.9592 25.6037C43.1382 25.1612 43.2176 24.6847 43.1914 24.2081C43.2061 23.4465 42.9746 22.7006 42.5314 22.0811C41.7984 21.1401 40.8944 20.9611 39.3514 20.9611L36.0474 20.9801ZM44.0094 18.3541V18.4391C44.8487 18.7619 45.6329 19.2126 46.3344 19.7751C47.0434 20.3635 47.6038 21.1107 47.97 21.9561C48.3363 22.8016 48.4981 23.7214 48.4424 24.6411C48.4424 28.0391 46.6354 30.4951 43.6714 31.2291C42.4894 31.5183 41.2719 31.6358 40.0564 31.5781H31.1064V6.72007H39.0684C40.3332 6.67374 41.5986 6.7907 42.8334 7.06807C45.7134 7.84007 47.6054 9.82607 47.6054 12.9601C47.629 13.7072 47.5002 14.4514 47.2269 15.1472C46.9535 15.8429 46.5413 16.4758 46.0154 17.0071C45.4564 17.5744 44.7906 18.0254 44.0564 18.3341L44.0094 18.3541Z" fill="#0A2973"/>
</g>
<defs>
<clipPath id="clip0_976_6342">
<rect width="88" height="32" fill="white" transform="translate(0 0.5)"/>
</clipPath>
</defs>
</svg>
