<svg width="133" height="40" viewBox="0 0 133 40" fill="none" xmlns="http://www.w3.org/2000/svg">
<g clip-path="url(#clip0_976_6434)">
<path d="M0 39.1208H19.2445V20.1145C15.2281 27.6866 7.71493 32.6087 0 34.4972C0.024453 35.9287 0 39.1208 0 39.1208Z" fill="#08787C"/>
<path d="M6.14941 29.5628C10.6458 27.1911 14.3778 23.6011 16.9148 19.2068C16.9148 19.2068 16.9148 17.0137 16.9148 16.965C12.881 15.6354 9.20377 13.4085 6.16164 10.4529C6.16164 15.6614 6.16164 29.5628 6.16164 29.5628" fill="#08787C"/>
<path d="M7.18945 0.840065V8.08928C8.66171 9.54443 10.287 10.8373 12.0372 11.9454V4.16009C10.2985 3.24433 8.67525 2.12574 7.20168 0.827881" fill="#08787C"/>
<path d="M33.6722 7.47402C33.6759 7.67794 33.6616 7.88179 33.6294 8.0832C33.6017 8.29336 33.5195 8.49269 33.3908 8.66149C33.2622 8.83029 33.0915 8.96272 32.8958 9.0457C32.2872 9.28088 31.6262 9.34822 30.9824 9.24064V6.27394C31.6784 6.12583 32.4037 6.20045 33.0547 6.48715C33.2458 6.57284 33.4065 6.7141 33.5156 6.89239C33.6247 7.07068 33.6771 7.27768 33.666 7.4862M35.7323 6.95622C35.6754 6.47732 35.4771 6.02604 35.1626 5.6595C34.8481 5.29297 34.4315 5.02767 33.9656 4.8972C33.4269 4.72734 32.8675 4.63103 32.3028 4.61088C31.9112 4.59223 31.5187 4.60445 31.1291 4.64744C31.0763 4.6414 31.0229 4.6414 30.9701 4.64744V2.36911H32.8041L34.8582 2.66151L34.9376 0.833984H28.641L28.8916 3.14277V8.3025L28.6104 10.7392H28.9711C28.9711 10.7392 29.8392 10.7392 30.2488 10.7392C30.4688 10.7392 30.695 10.7392 30.909 10.7697C31.2208 10.7697 31.5203 10.8062 31.8443 10.8062H32.0644C33.067 10.8337 34.0489 10.5176 34.8459 9.91073C35.242 9.53891 35.5312 9.06848 35.6838 8.54802C35.8363 8.02756 35.8469 7.47594 35.714 6.95013" fill="#111138"/>
<path d="M42.0466 6.0791C41.7165 6.0791 41.3864 6.0791 41.044 6.0791C40.7017 6.0791 40.3777 6.0791 40.0598 6.0791C40.2554 5.60394 40.4511 5.14096 40.6711 4.65971L41.1174 3.60583L42.0466 6.0791ZM42.6579 1.97324L42.3462 0.754883H40.2616L40.017 1.83313L37.4984 8.33306L36.4102 10.6845L38.5987 10.7149L38.9778 8.94223L39.5035 7.58986H42.6396L43.3549 9.30774L43.7461 10.6906H46.5704L45.6168 9.07016L42.6579 1.97324Z" fill="#111138"/>
<path d="M64.1522 10.715L67.0255 10.6846L62.4528 5.51874L66.732 0.803711H64.2134L63.4614 1.85758C63.4614 1.85758 61.5235 3.97143 60.4721 5.13496V2.5886L60.7655 0.840262H58.1246L58.2835 2.56423L58.3141 8.65601L58.1123 10.6907H60.7472L60.4598 8.68038V6.24367L64.1278 10.6968L64.1522 10.715Z" fill="#111138"/>
<path d="M55.6981 7.7482C55.6981 7.09029 55.7348 2.63719 55.6981 2.63719L55.9243 0.858398H53.3139L53.5279 2.57628V4.65967H49.8599C49.7958 3.52343 49.8883 2.3838 50.135 1.27264L50.2328 0.870582H47.5185L47.5675 1.23609C47.5675 1.36402 47.7386 2.73466 47.7631 3.3743C47.7936 4.70231 47.7631 6.05468 47.7631 7.3766V7.66901C47.7631 8.23554 47.6286 9.95342 47.5736 10.2641L47.4941 10.6479H50.1167L50.0678 10.2946C50.0678 10.0692 50.0128 9.84377 49.9883 9.61228C49.9211 9.10057 49.866 8.61323 49.8294 8.12589C49.7927 7.63855 49.8294 7.11465 49.8294 6.62122V6.27399H53.5951V7.01109C53.666 8.09836 53.5775 9.19012 53.3322 10.2519L53.2161 10.6601H55.9732L55.9059 10.2702C55.7602 9.44573 55.6907 8.60969 55.6981 7.77256" fill="#111138"/>
<path d="M87.3521 15.5823L87.4316 15.1924H81.8318L81.8746 15.5579C82.0825 17.2271 82.217 18.7987 82.3087 20.3521C82.3759 21.4669 82.3637 22.6305 82.3453 23.7331C82.3453 24.129 82.3453 24.525 82.3453 24.9514H71.8672C71.8122 21.9055 71.7755 18.7256 72.5764 15.631L72.6803 15.2229H66.9033L66.9522 15.5884C66.9522 15.5884 67.3862 19.3531 67.4412 21.1258C67.5451 24.5311 67.5085 28.0095 67.4901 31.3783V32.1702C67.4901 33.6383 67.1356 38.1036 66.9827 38.8712L66.9033 39.2549H72.4785L72.4358 38.8955C72.3624 38.2863 72.2952 37.732 72.2157 37.1533C72.0567 35.8801 71.8856 34.5764 71.8183 33.2789C71.7511 31.9813 71.7633 30.6655 71.7816 29.3923C71.7816 28.9233 71.7816 28.4603 71.7816 27.9912H82.437C82.437 28.7893 82.437 29.5934 82.437 30.3792C82.4798 33.3094 82.5165 36.075 81.7524 38.8468L81.6362 39.2671H87.4316L87.3521 38.8833C86.9769 36.735 86.7928 34.5579 86.8019 32.3773C86.8019 30.5985 86.8019 22.7218 86.8814 20.5349C86.9111 18.8745 87.0684 17.2187 87.3521 15.5823Z" fill="#111138"/>
<path d="M53.1793 36.337V27.8085C55.8569 27.8877 60.9553 28.2837 61.0165 28.2837H61.3649V24.391L53.1793 24.854V18.153C55.6246 18.1165 60.1912 18.0921 62.5753 18.8353L62.9544 18.945L63.0094 18.5612C63.1027 17.5486 63.1191 16.5304 63.0583 15.5153V15.2046H48.2275L48.2826 15.5823C48.691 18.7203 48.8362 21.8868 48.7166 25.0489C48.7166 25.7678 48.7166 26.4805 48.7166 27.2115C48.7655 31.7986 48.252 38.8285 48.252 38.8955V39.2489L62.9666 39.3159V38.9991C63.0033 38.2133 63.0705 36.1177 63.1011 35.8253L63.1622 35.3806L62.7159 35.472C59.592 36.0871 56.4123 36.377 53.2282 36.337" fill="#111138"/>
<path d="M40.6098 25.786L40.8115 25.6642C42.1503 24.7626 43.6786 23.4346 43.7642 21.1745C43.8926 18.0495 42.1809 15.8442 39.0692 15.0828C36.2673 14.4644 33.3535 14.5671 30.6024 15.3813C29.1413 15.7894 28.9029 15.9234 28.9457 16.2646C29.0252 16.8737 29.1535 17.6048 29.2758 18.2992C29.3675 18.7987 29.4592 19.3105 29.5264 19.8039C29.5403 19.8921 29.5786 19.9747 29.6369 20.0424C29.6952 20.1102 29.7712 20.1605 29.8566 20.1877C29.943 20.2126 30.0346 20.2139 30.1218 20.1914C30.2089 20.1689 30.2883 20.1234 30.3517 20.0597L30.5351 19.8709C31.2544 19.1283 32.1291 18.5528 33.097 18.1854C34.0648 17.8179 35.1021 17.6675 36.1349 17.7449C36.8163 17.7413 37.4794 17.9648 38.0189 18.3798C38.5583 18.7948 38.943 19.3775 39.112 20.0354C39.5033 21.8629 38.8492 23.4224 37.437 24.0499C36.6636 24.3716 35.8553 24.6026 35.0284 24.7382C34.1175 24.8966 32.3141 25.0245 32.2896 25.0245H31.9717L32.1123 28.0704H32.4302C32.4302 28.0704 34.0502 27.9973 35.3952 27.9973C36.0065 27.9973 37.9383 28.1374 38.9286 28.7283C39.3535 28.9709 39.7226 29.2995 40.0122 29.693C40.3018 30.0864 40.5053 30.536 40.6098 31.0128C40.8726 32.3773 41.1111 35.6364 37.5531 36.4101C34.4965 37.0802 31.9534 36.4101 30.0827 34.3998L29.5692 33.8515L29.3736 33.6505C29.3166 33.5891 29.243 33.5455 29.1616 33.5249C29.0802 33.5044 28.9946 33.5078 28.9151 33.5348C28.8369 33.5625 28.7681 33.6114 28.7162 33.6759C28.6644 33.7405 28.6317 33.8182 28.6217 33.9003L28.53 34.6495C28.4383 35.3867 28.3588 36.0811 28.2427 36.7634C28.183 37.0208 28.2166 37.291 28.3374 37.5261C28.4582 37.7613 28.6585 37.9464 28.9029 38.0488C30.9989 39.1861 33.351 39.7731 35.7375 39.7545C36.2082 39.7545 36.6851 39.7545 37.1619 39.6935C39.0662 39.5713 40.8886 38.8768 42.3887 37.7015C44.51 35.9715 45.4454 33.8698 45.2375 31.4575C44.9869 28.7101 43.4035 26.8216 40.5853 25.8347" fill="#111138"/>
<path d="M111.145 28.7771V25.8348C111.145 22.4234 111.108 18.9023 111.726 15.5945L111.793 15.2046H106.022L106.089 15.5945C106.285 16.6179 106.456 17.7083 106.597 18.8414C106.631 18.9668 106.632 19.0989 106.6 19.2248C106.568 19.3507 106.504 19.4662 106.413 19.5602C104.58 21.5157 102.782 23.5016 101.052 25.4266C99.4629 27.1871 97.8368 28.9903 96.1618 30.7752C96.1984 29.2644 96.1618 27.7659 96.1618 26.2977C96.0823 22.6427 96.015 19.1277 96.9381 15.6249L97.0421 15.2168H91.1367L91.2589 15.6371C91.7209 17.4055 91.9106 19.2336 91.8214 21.0588V22.8559C91.8214 25.9931 91.8214 29.234 91.8214 32.4139C91.8214 32.889 91.8214 33.3825 91.8214 33.8455C91.8651 34.7369 91.8508 35.6302 91.7786 36.5197C91.7054 37.0593 91.6013 37.5942 91.4668 38.1219C91.4118 38.3716 91.3567 38.6336 91.2956 38.8834L91.2161 39.2793H96.932L96.877 38.9016C96.7548 38.1219 96.6753 37.3482 96.5897 36.5868C96.5469 36.1421 96.5041 35.7095 96.443 35.2648C96.4281 35.0614 96.4891 34.8597 96.6141 34.6983C98.2342 32.95 99.8419 31.1773 101.382 29.4472C103.137 27.5039 104.952 25.4814 106.799 23.5016V26.8094C106.799 27.8816 106.799 28.9598 106.799 30.0076C106.799 31.6159 106.835 33.2789 106.768 34.9176C106.701 35.8312 106.583 36.7403 106.413 37.6406C106.346 38.061 106.267 38.4813 106.206 38.9016L106.151 39.2793H111.818L111.726 38.9199C111.115 35.7339 111.115 32.219 111.145 28.8136" fill="#111138"/>
<path d="M125.713 18.4088C125.709 18.3418 125.709 18.2747 125.713 18.2077L133 19.1398L132.542 15.1619H114.33L113.927 19.1398L121.727 18.2077V33.3945L120.975 39.267H126.477L125.786 33.492C125.805 33.3945 125.731 23.3797 125.713 18.4088Z" fill="#111138"/>
</g>
<defs>
<clipPath id="clip0_976_6434">
<rect width="133" height="39" fill="white" transform="translate(0 0.754883)"/>
</clipPath>
</defs>
</svg>
