<svg width="67" height="66" viewBox="0 0 67 66" fill="none" xmlns="http://www.w3.org/2000/svg">
<path d="M56.1875 18.5624H47.1434C47.244 18.4774 47.3471 18.3949 47.4451 18.3046C48.2281 17.609 48.8591 16.7593 49.2987 15.8086C49.7384 14.858 49.9771 13.8268 50 12.7797C50.0339 11.6342 49.8332 10.4938 49.4105 9.42862C48.9877 8.36343 48.3516 7.3959 47.5414 6.58541C46.7311 5.77492 45.7638 5.13859 44.6987 4.71548C43.6337 4.29237 42.4934 4.09141 41.3478 4.12494C40.3002 4.1475 39.2686 4.38606 38.3175 4.82569C37.3664 5.26532 36.5162 5.89654 35.8203 6.67986C34.8573 7.79591 34.0745 9.05545 33.5 10.413C32.9255 9.05545 32.1427 7.79591 31.1797 6.67986C30.4838 5.89654 29.6336 5.26532 28.6825 4.82569C27.7314 4.38606 26.6998 4.1475 25.6522 4.12494C24.5066 4.09141 23.3663 4.29237 22.3013 4.71548C21.2362 5.13859 20.2689 5.77492 19.4586 6.58541C18.6484 7.3959 18.0123 8.36343 17.5895 9.42862C17.1668 10.4938 16.9661 11.6342 17 12.7797C17.0229 13.8268 17.2616 14.858 17.7013 15.8086C18.1409 16.7593 18.7719 17.609 19.5549 18.3046C19.6529 18.3897 19.756 18.4722 19.8566 18.5624H10.8125C9.71848 18.5624 8.66927 18.997 7.89568 19.7706C7.1221 20.5442 6.6875 21.5934 6.6875 22.6874V30.9374C6.6875 32.0315 7.1221 33.0807 7.89568 33.8543C8.66927 34.6278 9.71848 35.0624 10.8125 35.0624V51.5624C10.8125 52.6565 11.2471 53.7057 12.0207 54.4793C12.7943 55.2528 13.8435 55.6874 14.9375 55.6874H52.0625C53.1565 55.6874 54.2057 55.2528 54.9793 54.4793C55.7529 53.7057 56.1875 52.6565 56.1875 51.5624V35.0624C57.2815 35.0624 58.3307 34.6278 59.1043 33.8543C59.8779 33.0807 60.3125 32.0315 60.3125 30.9374V22.6874C60.3125 21.5934 59.8779 20.5442 59.1043 19.7706C58.3307 18.997 57.2815 18.5624 56.1875 18.5624ZM38.9141 9.41267C39.2406 9.05204 39.6382 8.76283 40.0819 8.56318C40.5256 8.36353 41.0057 8.25776 41.4922 8.25252H41.6185C42.1887 8.25608 42.7525 8.37342 43.2767 8.59765C43.801 8.82189 44.2752 9.14851 44.6717 9.55838C45.0681 9.96824 45.3787 10.4531 45.5853 10.9846C45.792 11.516 45.8904 12.0834 45.875 12.6534C45.8698 13.1399 45.764 13.62 45.5643 14.0637C45.3647 14.5073 45.0755 14.9049 44.7148 15.2315C42.2682 17.3971 38.2077 18.1603 35.6914 18.4284C36.0008 15.6981 36.8516 11.7304 38.9141 9.41267ZM22.3909 9.50548C23.1899 8.7065 24.2721 8.25528 25.4021 8.24994H25.5284C26.0149 8.25518 26.4951 8.36095 26.9387 8.5606C27.3824 8.76025 27.78 9.04947 28.1066 9.41009C30.2696 11.8542 31.0327 15.907 31.3009 18.4129C28.7949 18.1551 24.7421 17.3817 22.298 15.2186C21.9374 14.892 21.6482 14.4944 21.4486 14.0508C21.2489 13.6071 21.1431 13.127 21.1379 12.6405C21.1219 12.061 21.2238 11.4843 21.4374 10.9454C21.651 10.4065 21.9719 9.91664 22.3805 9.50548H22.3909ZM10.8125 22.6874H31.4375V30.9374H10.8125V22.6874ZM14.9375 35.0624H31.4375V51.5624H14.9375V35.0624ZM52.0625 51.5624H35.5625V35.0624H52.0625V51.5624ZM56.1875 30.9374H35.5625V22.6874H56.1875V30.9374Z" fill="white"/>
</svg>
