<svg width="48" height="48" viewBox="0 0 48 48" fill="none" xmlns="http://www.w3.org/2000/svg">
<rect width="48" height="48" rx="8" fill="#224775"/>
<g clip-path="url(#clip0_119_382)">
<path d="M29.3335 22.666C31.5402 22.666 33.3202 20.8727 33.3202 18.666C33.3202 16.4593 31.5402 14.666 29.3335 14.666C27.1268 14.666 25.3335 16.4593 25.3335 18.666C25.3335 20.8727 27.1268 22.666 29.3335 22.666ZM18.6668 22.666C20.8735 22.666 22.6535 20.8727 22.6535 18.666C22.6535 16.4593 20.8735 14.666 18.6668 14.666C16.4602 14.666 14.6668 16.4593 14.6668 18.666C14.6668 20.8727 16.4602 22.666 18.6668 22.666ZM18.6668 25.3327C15.5535 25.3327 9.3335 26.8927 9.3335 29.9993V33.3327H28.0002V29.9993C28.0002 26.8927 21.7802 25.3327 18.6668 25.3327ZM29.3335 25.3327C28.9468 25.3327 28.5135 25.3593 28.0468 25.406C29.5935 26.5193 30.6668 28.0193 30.6668 29.9993V33.3327H38.6668V29.9993C38.6668 26.8927 32.4468 25.3327 29.3335 25.3327Z" fill="white"/>
</g>
<defs>
<clipPath id="clip0_119_382">
<rect width="32" height="32" fill="white" transform="translate(8 8)"/>
</clipPath>
</defs>
</svg>
