<svg width="64" height="64" viewBox="0 0 64 64" fill="none" xmlns="http://www.w3.org/2000/svg">
<rect width="64" height="64" rx="8" fill="#0B3F96"/>
<path d="M45.84 18.02C45.43 16.84 44.31 16 43 16H21C19.69 16 18.57 16.84 18.16 18.02L14 30V46C14 47.1 14.9 48 16 48H18C19.11 48 20 47.1 20 46V44H44V46C44 47.1 44.9 48 46 48H48C49.11 48 50 47.1 50 46V30L45.84 18.02ZM21 38C19.34 38 18 36.66 18 35C18 33.34 19.34 32 21 32C22.66 32 24 33.34 24 35C24 36.66 22.66 38 21 38ZM43 38C41.34 38 40 36.66 40 35C40 33.34 41.34 32 43 32C44.66 32 46 33.34 46 35C46 36.66 44.66 38 43 38ZM18 28L21 19H43L46 28H18Z" fill="white"/>
</svg>
