<svg width="64" height="64" viewBox="0 0 64 64" fill="none" xmlns="http://www.w3.org/2000/svg">
<rect width="64" height="64" rx="8" fill="#0B3F96"/>
<g clip-path="url(#clip0_1749_1517)">
<path d="M34.83 44.18V48H29.5V44.14C26.09 43.41 23.17 41.22 22.96 37.33H26.87C27.07 39.43 28.51 41.06 32.17 41.06C36.1 41.06 36.97 39.1 36.97 37.88C36.97 36.23 36.08 34.66 31.64 33.6C26.68 32.41 23.28 30.36 23.28 26.26C23.28 22.83 26.05 20.59 29.5 19.84V16H34.83V19.89C38.55 20.8 40.41 23.61 40.54 26.66H36.6C36.49 24.44 35.32 22.93 32.16 22.93C29.16 22.93 27.36 24.28 27.36 26.22C27.36 27.91 28.66 28.99 32.69 30.04C36.73 31.09 41.05 32.81 41.05 37.86C41.05 41.51 38.29 43.52 34.83 44.18Z" fill="white"/>
</g>
<defs>
<clipPath id="clip0_1749_1517">
<rect width="48" height="48" fill="white" transform="translate(8 8)"/>
</clipPath>
</defs>
</svg>
