<svg width="144" height="144" viewBox="0 0 144 144" fill="none" xmlns="http://www.w3.org/2000/svg">
<g filter="url(#filter0_d_1478_1886)">
<rect x="38" y="36" width="64" height="64" rx="8" fill="#0B3F96" shape-rendering="crispEdges"/>
<g clip-path="url(#clip0_1478_1886)">
<path d="M78 66C81.31 66 83.98 63.31 83.98 60C83.98 56.69 81.31 54 78 54C74.69 54 72 56.69 72 60C72 63.31 74.69 66 78 66ZM62 66C65.31 66 67.98 63.31 67.98 60C67.98 56.69 65.31 54 62 54C58.69 54 56 56.69 56 60C56 63.31 58.69 66 62 66ZM62 70C57.33 70 48 72.34 48 77V82H76V77C76 72.34 66.67 70 62 70ZM78 70C77.42 70 76.77 70.04 76.07 70.11C78.39 71.78 80 74.03 80 77V82H92V77C92 72.34 82.67 70 78 70Z" fill="white"/>
</g>
</g>
<defs>
<filter id="filter0_d_1478_1886" x="0" y="0" width="144" height="144" filterUnits="userSpaceOnUse" color-interpolation-filters="sRGB">
<feFlood flood-opacity="0" result="BackgroundImageFix"/>
<feColorMatrix in="SourceAlpha" type="matrix" values="0 0 0 0 0 0 0 0 0 0 0 0 0 0 0 0 0 0 127 0" result="hardAlpha"/>
<feOffset dx="2" dy="4"/>
<feGaussianBlur stdDeviation="20"/>
<feComposite in2="hardAlpha" operator="out"/>
<feColorMatrix type="matrix" values="0 0 0 0 0.677885 0 0 0 0 0.677885 0 0 0 0 0.677885 0 0 0 0.2 0"/>
<feBlend mode="normal" in2="BackgroundImageFix" result="effect1_dropShadow_1478_1886"/>
<feBlend mode="normal" in="SourceGraphic" in2="effect1_dropShadow_1478_1886" result="shape"/>
</filter>
<clipPath id="clip0_1478_1886">
<rect width="48" height="48" fill="white" transform="translate(46 44)"/>
</clipPath>
</defs>
</svg>
