<svg width="64" height="64" viewBox="0 0 64 64" fill="none" xmlns="http://www.w3.org/2000/svg">
<rect width="64" height="64" rx="8" fill="#0B3F96"/>
<g clip-path="url(#clip0_1478_1886)">
<path d="M40 30C43.31 30 45.98 27.31 45.98 24C45.98 20.69 43.31 18 40 18C36.69 18 34 20.69 34 24C34 27.31 36.69 30 40 30ZM24 30C27.31 30 29.98 27.31 29.98 24C29.98 20.69 27.31 18 24 18C20.69 18 18 20.69 18 24C18 27.31 20.69 30 24 30ZM24 34C19.33 34 10 36.34 10 41V46H38V41C38 36.34 28.67 34 24 34ZM40 34C39.42 34 38.77 34.04 38.07 34.11C40.39 35.78 42 38.03 42 41V46H54V41C54 36.34 44.67 34 40 34Z" fill="white"/>
</g>
<defs>
<clipPath id="clip0_1478_1886">
<rect width="48" height="48" fill="white" transform="translate(8 8)"/>
</clipPath>
</defs>
</svg>
